# xmcd
#
# Track frame offsets: 
#        150
#        16493
#        35752
#        54345
#        72550
#        89855
#        104307
#        120954
#        138226
#        158273
#        170550
#        190456
#        209828
#        229642
#        246505
#        266252
#        285123
#
# Disc length: 4043 seconds
#
# Revision: 21
# Processed by: cddbd v1.5.2PL0 Copyright (c) Steve Scherf et al.
# Submitted via: ExactAudioCopy v1.3
#
DISCID=f10fc911
DTITLE=Pink - The Truth About Love (Deluxe Edition)
DYEAR=2012
DGENRE=Pop
TTITLE0=Are we all we are
TTITLE1=Blow me (one last kiss)
TTITLE2=Try
TTITLE3=Just give me a reason (feat. Nate Ruess)
TTITLE4=True love (feat. Lily Rose Cooper)
TTITLE5=How come you're not here?
TTITLE6=Slut like you
TTITLE7=The truth about love
TTITLE8=Beam me up
TTITLE9=Walk of shame
TTITLE10=Here comes the weekend (feat. Eminem)
TTITLE11=Where did the beat go?
TTITLE12=The great escape
TTITLE13=My signature move
TTITLE14=Is this thing on?
TTITLE15=Run
TTITLE16=Good old days
EXTD=
EXTT0=
EXTT1=
EXTT2=
EXTT3=
EXTT4=
EXTT5=
EXTT6=
EXTT7=
EXTT8=
EXTT9=
EXTT10=
EXTT11=
EXTT12=
EXTT13=
EXTT14=
EXTT15=
EXTT16=
PLAYORDER=
